<?xml version="1.0" encoding="UTF-8"?>
<!DOCTYPE svg PUBLIC "-//W3C//DTD SVG 1.1//EN" "http://www.w3.org/Graphics/SVG/1.1/DTD/svg11.dtd">
<svg xmlns="http://www.w3.org/2000/svg" version="1.1" width="1200px" height="1200px" style="shape-rendering:geometricPrecision; text-rendering:geometricPrecision; image-rendering:optimizeQuality; fill-rule:evenodd; clip-rule:evenodd" xmlns:xlink="http://www.w3.org/1999/xlink">
<g><path style="opacity:0.992" fill="#3b2214" d="M 700.5,85.5 C 758.292,85.4609 801.126,110.461 829,160.5C 852.68,204.234 862.013,250.901 857,300.5C 853.834,342.169 843.334,381.835 825.5,419.5C 841.538,419.353 857.538,420.02 873.5,421.5C 876.231,388.42 889.898,360.92 914.5,339C 920.998,334.583 927.665,330.416 934.5,326.5C 934.92,320.867 936.253,315.534 938.5,310.5C 943.998,307.585 949.332,304.419 954.5,301C 959.216,300.273 963.549,298.607 967.5,296C 983.569,291.872 992.902,298.039 995.5,314.5C 995.218,321.619 991.885,326.786 985.5,330C 977.12,335.19 968.454,339.857 959.5,344C 948.046,346.524 940.212,342.357 936,331.5C 913.848,350.796 900.848,375.129 897,404.5C 895.766,411.168 894.599,417.835 893.5,424.5C 942.839,432.557 990.506,446.391 1036.5,466C 1097.27,493.459 1134.44,539.959 1148,605.5C 1154.81,635.933 1156.14,666.599 1152,697.5C 1146.22,732.304 1136.55,765.97 1123,798.5C 1104.27,836.556 1079.44,870.056 1048.5,899C 962.022,969.246 864.689,1019.58 756.5,1050C 713.204,1061.07 669.538,1070.41 625.5,1078C 585.323,1083.66 544.989,1085 504.5,1082C 467.351,1077.69 430.351,1072.36 393.5,1066C 362.935,1058.82 334.268,1047.15 307.5,1031C 298.878,1024.71 290.545,1018.05 282.5,1011C 218.654,1003.57 154.654,997.902 90.5,994C 88.6751,992.534 88.1751,990.701 89,988.5C 125.533,950.302 161.7,911.802 197.5,873C 198.833,872.333 200.167,871.667 201.5,871C 199.724,862.966 198.557,854.799 198,846.5C 196.741,827.179 196.408,807.846 197,788.5C 207.059,745.634 223.725,705.634 247,668.5C 272.11,631.704 300.61,597.537 332.5,566C 353.015,550.491 374.349,536.158 396.5,523C 388.228,523.75 379.895,524.25 371.5,524.5C 354.404,523.976 338.07,520.143 322.5,513C 264.018,485.499 215.185,445.999 176,394.5C 148.031,352.254 136.697,305.921 142,255.5C 156.82,174.013 204.987,125.846 286.5,111C 328.15,107.531 367.15,116.198 403.5,137C 450.118,165.254 489.618,201.421 522,245.5C 535.409,191.432 565.242,148.932 611.5,118C 630.437,105.699 650.77,96.366 672.5,90C 681.894,87.9335 691.227,86.4335 700.5,85.5 Z"/></g>
<g><path style="opacity:1" fill="#dbe4ed" d="M 824.5,242.5 C 824.229,247.434 824.896,252.1 826.5,256.5C 832.531,312.328 824.865,366.328 803.5,418.5C 776.469,419.28 749.469,420.613 722.5,422.5C 723.257,393.028 730.591,365.361 744.5,339.5C 745.002,338.479 745.668,338.312 746.5,339C 752.25,345.573 759.25,347.239 767.5,344C 773.96,340.936 780.293,337.603 786.5,334C 796.024,327.793 799.524,318.96 797,307.5C 794.728,298.228 788.895,292.728 779.5,291C 776.167,290.333 772.833,290.333 769.5,291C 759.196,296.06 749.696,302.226 741,309.5C 738.767,317.196 739.267,324.696 742.5,332C 737.239,334.545 732.406,337.712 728,341.5C 719.518,354.468 713.185,368.468 709,383.5C 705.792,397.04 703.292,410.707 701.5,424.5C 661.713,429.391 622.38,436.724 583.5,446.5C 587.645,405.653 581.812,366.32 566,328.5C 561.591,318.017 556.924,307.684 552,297.5C 541.229,229.808 561.062,172.974 611.5,127C 626.712,113.921 644.379,106.254 664.5,104C 725.575,100.113 771.075,124.613 801,177.5C 812.039,197.976 819.872,219.643 824.5,242.5 Z"/></g>
<g><path style="opacity:1" fill="#c2d1e2" d="M 553.5,400.5 C 553.362,405.414 554.028,410.081 555.5,414.5C 556.627,426.788 556.793,439.121 556,451.5C 555.682,453.061 554.849,454.228 553.5,455C 511.263,467.453 470.596,483.786 431.5,504C 419.543,505.617 407.543,506.784 395.5,507.5C 379.912,506.019 364.912,502.186 350.5,496C 292.198,468.714 243.698,429.214 205,377.5C 179.242,337.978 167.576,294.644 170,247.5C 173.596,212.661 186.263,181.661 208,154.5C 220.183,139.324 236.016,130.824 255.5,129C 297.412,124.182 336.745,132.182 373.5,153C 458.298,203.474 516.131,275.641 547,369.5C 550.261,379.554 552.428,389.887 553.5,400.5 Z"/></g>
<g><path style="opacity:1" fill="#a09ea0" d="M 824.5,242.5 C 825.972,246.919 826.638,251.586 826.5,256.5C 824.896,252.1 824.229,247.434 824.5,242.5 Z"/></g>
<g><path style="opacity:1" fill="#f9bb00" d="M 760.5,304.5 C 767.876,305.101 773.043,308.767 776,315.5C 776.829,320.533 776.662,325.533 775.5,330.5C 770.345,331.338 766.512,329.338 764,324.5C 761.074,318.156 759.907,311.489 760.5,304.5 Z"/></g>
<g><path style="opacity:1" fill="#f6b801" d="M 956.5,308.5 C 970.15,309.151 975.483,316.151 972.5,329.5C 963.969,330.827 958.802,327.16 957,318.5C 956.502,315.183 956.335,311.85 956.5,308.5 Z"/></g>
<g><path style="opacity:1" fill="#8c8b8f" d="M 553.5,400.5 C 554.972,404.919 555.638,409.586 555.5,414.5C 554.028,410.081 553.362,405.414 553.5,400.5 Z"/></g>
<g><path style="opacity:1" fill="#9e4320" d="M 747.5,441.5 C 767.203,441.09 786.87,441.59 806.5,443C 777.89,454.471 750.557,468.304 724.5,484.5C 723.522,484.023 722.689,483.357 722,482.5C 721.333,469.5 721.333,456.5 722,443.5C 730.598,442.846 739.098,442.18 747.5,441.5 Z"/></g>
<g><path style="opacity:1" fill="#9f4320" d="M 694.5,444.5 C 696.5,444.5 698.5,444.5 700.5,444.5C 700.333,460.17 700.5,475.837 701,491.5C 701.883,494.102 703.383,496.269 705.5,498C 673.092,523.087 648.926,554.587 633,592.5C 604.761,657.53 599.094,724.53 616,793.5C 628.165,849.273 655.665,895.773 698.5,933C 734.495,961.564 775.495,978.231 821.5,983C 844.475,984.553 867.475,984.887 890.5,984C 897.175,982.328 903.841,980.994 910.5,980C 861.54,1004.88 810.207,1023.21 756.5,1035C 730.029,1041.62 703.363,1046.95 676.5,1051C 664.041,1040.27 651.041,1030.27 637.5,1021C 585.982,974.848 550.482,918.348 531,851.5C 506.701,766.12 514.368,683.787 554,604.5C 582.028,548.458 619.861,499.958 667.5,459C 675.546,452.058 684.546,447.224 694.5,444.5 Z"/></g>
<g><path style="opacity:1" fill="#febf00" d="M 1102.5,601.5 C 1102.53,604.916 1103.53,607.916 1105.5,610.5C 1109.7,623.159 1112.37,636.159 1113.5,649.5C 1113.45,655.389 1114.12,661.056 1115.5,666.5C 1115.91,718.934 1105.75,769.267 1085,817.5C 1068.53,851.274 1047.03,881.44 1020.5,908C 999.209,924.979 977.209,940.979 954.5,956C 917.915,971.408 879.915,976.075 840.5,970C 753.928,959.828 691.761,915.662 654,837.5C 622.791,762.817 619.124,686.817 643,609.5C 656.416,569.472 677.916,534.639 707.5,505C 742.993,474.921 783.66,454.921 829.5,445C 861.815,446.796 893.482,452.462 924.5,462C 957.382,471.277 989.049,483.61 1019.5,499C 1048.98,515.478 1072.14,538.311 1089,567.5C 1094.42,578.535 1098.92,589.869 1102.5,601.5 Z"/></g>
<g><path style="opacity:1" fill="#febf00" d="M 501.5,712.5 C 500.028,716.919 499.362,721.586 499.5,726.5C 497.246,750.317 496.913,774.317 498.5,798.5C 498.444,803.731 499.111,808.731 500.5,813.5C 512.155,885.129 541.322,948.463 588,1003.5C 606.441,1023.62 626.941,1041.12 649.5,1056C 638.228,1057.81 626.894,1059.15 615.5,1060C 595.167,1060.67 574.833,1060.67 554.5,1060C 547.458,1059.73 540.458,1059.06 533.5,1058C 506.283,1036.33 484.117,1010.5 467,980.5C 443.196,936.92 427.696,890.587 420.5,841.5C 420.556,836.269 419.889,831.269 418.5,826.5C 402.505,675.873 454.505,555.04 574.5,464C 608.398,455.406 642.731,449.739 677.5,447C 656.334,459.156 637.167,473.989 620,491.5C 568.747,543.965 531.747,605.299 509,675.5C 505.538,687.646 503.038,699.979 501.5,712.5 Z"/></g>
<g><path style="opacity:1" fill="#9f4320" d="M 556.5,467.5 C 557.239,467.369 557.906,467.536 558.5,468C 424.965,570.016 373.465,704.183 404,870.5C 414.269,928.684 436.936,981.35 472,1028.5C 478.983,1036.32 486.15,1043.98 493.5,1051.5C 492.5,1051.83 491.5,1052.17 490.5,1052.5C 451.085,1046.77 412.918,1036.44 376,1021.5C 352.977,991.792 335.977,958.792 325,922.5C 293.643,828.002 298.31,735.336 339,644.5C 357.39,602.682 381.056,564.349 410,529.5C 434.331,511.143 461.165,497.31 490.5,488C 512.432,480.524 534.432,473.691 556.5,467.5 Z"/></g>
<g><path style="opacity:1" fill="#fdbe00" d="M 288.5,759.5 C 287.111,764.269 286.444,769.269 286.5,774.5C 279.796,845.946 290.963,914.612 320,980.5C 323.707,987.414 327.54,994.248 331.5,1001C 307.673,990.981 287.173,976.147 270,956.5C 233.349,899.617 217.349,837.284 222,769.5C 223.991,752.535 228.325,736.201 235,720.5C 247.564,694.359 261.897,669.359 278,645.5C 290.691,628.802 304.858,613.302 320.5,599C 338.751,582.745 357.585,567.245 377,552.5C 377.167,552.833 377.333,553.167 377.5,553.5C 330.367,614.451 300.701,683.117 288.5,759.5 Z"/></g>
<g><path style="opacity:1" fill="#3e2514" d="M 1024.5,641.5 C 1025.58,652.972 1026.58,664.306 1027.5,675.5C 1027.67,683.507 1027.5,691.507 1027,699.5C 1023.27,702.447 1019.11,704.447 1014.5,705.5C 1016.04,679.507 1013.88,653.84 1008,628.5C 1004.44,611.63 996.609,597.13 984.5,585C 972.588,577.504 962.421,579.338 954,590.5C 944.72,602.653 938.72,616.32 936,631.5C 931.981,649.041 929.815,666.708 929.5,684.5C 925.5,686.833 921.5,689.167 917.5,691.5C 915.92,660.232 922.087,630.566 936,602.5C 945.626,588.548 958.459,578.715 974.5,573C 986.334,570.944 996.167,574.444 1004,583.5C 1016.08,600.916 1022.92,620.25 1024.5,641.5 Z"/></g>
<g><path style="opacity:1" fill="#3e2514" d="M 797.5,600.5 C 804.604,600.384 810.938,602.551 816.5,607C 823.189,612.348 828.355,618.848 832,626.5C 836.884,636.267 841.217,646.267 845,656.5C 849.65,673.096 853.65,689.763 857,706.5C 853.298,709.032 849.465,711.365 845.5,713.5C 844.914,713.291 844.414,712.957 844,712.5C 839.321,688.11 832.321,664.444 823,641.5C 819.503,634.502 815.503,627.835 811,621.5C 806.397,616.896 801.23,613.062 795.5,610C 792.167,609.333 788.833,609.333 785.5,610C 780.333,613.833 775.833,618.333 772,623.5C 761.382,639.736 754.382,657.403 751,676.5C 749.226,691.128 747.893,705.795 747,720.5C 743.062,724.051 738.562,726.385 733.5,727.5C 734.241,708.664 736.408,689.997 740,671.5C 745.808,649.372 756.641,630.205 772.5,614C 780.331,608.42 788.665,603.92 797.5,600.5 Z"/></g>
<g><path style="opacity:1" fill="#ac7d0b" d="M 1102.5,601.5 C 1104.07,604.215 1105.07,607.215 1105.5,610.5C 1103.53,607.916 1102.53,604.916 1102.5,601.5 Z"/></g>
<g><path style="opacity:1" fill="#664511" d="M 1024.5,641.5 C 1026.96,652.559 1027.96,663.893 1027.5,675.5C 1026.58,664.306 1025.58,652.972 1024.5,641.5 Z"/></g>
<g><path style="opacity:1" fill="#a4770b" d="M 1113.5,649.5 C 1114.88,654.944 1115.55,660.611 1115.5,666.5C 1114.12,661.056 1113.45,655.389 1113.5,649.5 Z"/></g>
<g><path style="opacity:1" fill="#654412" d="M 501.5,712.5 C 501.638,717.414 500.972,722.081 499.5,726.5C 499.362,721.586 500.028,716.919 501.5,712.5 Z"/></g>
<g><path style="opacity:1" fill="#3e2514" d="M 820.5,815.5 C 822.083,817.508 823.083,819.841 823.5,822.5C 830.592,834.069 840.925,841.235 854.5,844C 886.351,844.209 915.018,834.876 940.5,816C 956.833,802.333 971.833,787.333 985.5,771C 983.519,770.395 983.185,769.395 984.5,768C 989.036,764.732 994.036,762.565 999.5,761.5C 999.509,763.308 999.009,764.975 998,766.5C 976.042,793.804 949.875,815.971 919.5,833C 894.904,846.733 868.571,853.066 840.5,852C 832.497,849.662 825.164,845.995 818.5,841C 811.939,836.051 809.105,829.551 810,821.5C 813.283,819.109 816.783,817.109 820.5,815.5 Z"/></g>
<g><path style="opacity:1" fill="#6c4a11" d="M 288.5,759.5 C 288.556,764.731 287.889,769.731 286.5,774.5C 286.444,769.269 287.111,764.269 288.5,759.5 Z"/></g>
<g><path style="opacity:1" fill="#bd8b09" d="M 498.5,798.5 C 499.889,803.269 500.556,808.269 500.5,813.5C 499.111,808.731 498.444,803.731 498.5,798.5 Z"/></g>
<g><path style="opacity:1" fill="#976d0b" d="M 820.5,815.5 C 821.209,814.596 822.209,814.263 823.5,814.5C 823.5,817.167 823.5,819.833 823.5,822.5C 823.083,819.841 822.083,817.508 820.5,815.5 Z"/></g>
<g><path style="opacity:1" fill="#624212" d="M 418.5,826.5 C 419.889,831.269 420.556,836.269 420.5,841.5C 419.111,836.731 418.444,831.731 418.5,826.5 Z"/></g>
<g><path style="opacity:1" fill="#ede3c9" d="M 203.5,880.5 C 208.195,899.743 215.361,918.076 225,935.5C 233.636,948.813 242.303,962.146 251,975.5C 255.833,981 260.667,986.5 265.5,992C 213.876,987.822 162.209,983.822 110.5,980C 141.705,946.964 172.705,913.797 203.5,880.5 Z"/></g>
</svg>
